<?xml version="1.0" encoding="UTF-8" standalone="no"?>
<svg
   enable-background="new 0 0 56.693 56.693"
   height="56.693px"
   id="Layer_1"
   version="1.1"
   viewBox="0 0 56.693 56.693"
   width="56.693px"
   xml:space="preserve"
   sodipodi:docname="linkedin_icon.svg"
   inkscape:version="1.1 (c4e8f9e, 2021-05-24)"
   xmlns:inkscape="http://www.inkscape.org/namespaces/inkscape"
   xmlns:sodipodi="http://sodipodi.sourceforge.net/DTD/sodipodi-0.dtd"
   xmlns="http://www.w3.org/2000/svg"
   xmlns:svg="http://www.w3.org/2000/svg"><defs
     id="defs1149" /><sodipodi:namedview
     id="namedview1147"
     pagecolor="#ffffff"
     bordercolor="#666666"
     borderopacity="1.0"
     inkscape:pageshadow="2"
     inkscape:pageopacity="0.0"
     inkscape:pagecheckerboard="0"
     showgrid="false"
     inkscape:zoom="11.024289"
     inkscape:cx="28.301146"
     inkscape:cy="28.3465"
     inkscape:window-width="1296"
     inkscape:window-height="847"
     inkscape:window-x="0"
     inkscape:window-y="565"
     inkscape:window-maximized="0"
     inkscape:current-layer="Layer_1" /><g
     id="g1144"><path
       d="M28.347,5.155c-13.6,0-24.625,11.025-24.625,24.625c0,13.602,11.025,24.625,24.625,24.625   c13.598,0,24.623-11.023,24.623-24.625C52.97,16.181,41.944,5.155,28.347,5.155z M42.062,41.741c0,1.096-0.91,1.982-2.031,1.982   H16.613c-1.123,0-2.031-0.887-2.031-1.982V18.052c0-1.094,0.908-1.982,2.031-1.982H40.03c1.121,0,2.031,0.889,2.031,1.982V41.741z"
       id="path1136" /><path
       d="M33.099,26.441c-2.201,0-3.188,1.209-3.74,2.061v0.041h-0.027c0.01-0.012,0.02-0.027,0.027-0.041v-1.768h-4.15   c0.055,1.17,0,12.484,0,12.484h4.15v-6.973c0-0.375,0.027-0.744,0.137-1.012c0.301-0.744,0.984-1.52,2.129-1.52   c1.504,0,2.104,1.146,2.104,2.824v6.68h4.15V32.06C37.878,28.224,35.829,26.441,33.099,26.441z"
       id="path1138" /><path
       d="M20.864,20.712c-1.419,0-2.349,0.934-2.349,2.159c0,1.197,0.9,2.158,2.294,2.158h0.027c1.447,0,2.348-0.961,2.348-2.158   C23.157,21.646,22.284,20.712,20.864,20.712z"
       id="path1140" /><rect
       height="12.484"
       width="4.151"
       x="18.762"
       y="26.734"
       id="rect1142" /></g><path
     style="opacity:1;fill:#ffffff;stroke-width:0.0907088"
     d="m 15.92987,43.542737 c -0.518679,-0.184866 -1.034119,-0.731516 -1.19244,-1.26464 -0.114324,-0.384968 -0.133313,-2.146393 -0.133313,-12.365843 0,-8.82547 0.02764,-12.026708 0.106555,-12.340099 0.14222,-0.564808 0.777553,-1.209959 1.345091,-1.365878 0.316498,-0.08695 3.110878,-0.106239 12.472155,-0.08608 l 12.064271,0.02597 0.414555,0.243714 c 0.228006,0.134042 0.534148,0.416283 0.680316,0.627201 l 0.265761,0.383487 v 12.495079 12.495079 l -0.272688,0.393331 c -0.178611,0.257633 -0.442401,0.47939 -0.764613,0.642781 l -0.491926,0.249449 -12.070681,-0.004 C 18.308556,43.668993 16.223079,43.647242 15.92987,43.542737 Z M 22.949327,32.972649 V 26.713742 H 20.81767 18.686013 v 6.258907 6.258908 h 2.131657 2.131657 z m 6.440325,2.55631 c 0,-4.131747 0.02195,-4.317685 0.587805,-4.978758 0.436379,-0.50981 0.966374,-0.75236 1.643979,-0.75236 0.666921,0 1.260475,0.27386 1.555415,0.717654 0.450156,0.677342 0.476114,0.948212 0.476114,4.96811 v 3.747952 h 2.137228 2.137226 l -0.03314,-4.331346 c -0.02883,-3.767079 -0.05356,-4.402248 -0.189854,-4.875598 -0.273021,-0.948195 -0.727946,-1.792496 -1.249706,-2.319341 -0.885478,-0.89411 -1.86677,-1.263656 -3.355507,-1.263656 -1.462571,0 -2.449114,0.415537 -3.302423,1.390997 l -0.407135,0.465417 v -0.792144 -0.792144 l -2.10898,9.1e-5 -2.10898,9e-5 -0.0013,6.258788 -0.0013,6.258787 h 2.110325 2.110325 V 35.528901 Z M 21.685617,24.934858 c 0.616124,-0.182735 1.285581,-0.813077 1.434378,-1.35057 0.228452,-0.825224 0.07028,-1.572602 -0.460426,-2.175512 -0.450078,-0.511316 -0.997545,-0.724544 -1.840415,-0.716808 -1.701328,0.01562 -2.688507,1.347614 -2.203002,2.972505 0.325971,1.090959 1.723806,1.669494 3.069465,1.270385 z"
     id="path1319" /><path
     style="opacity:1;fill:#ffffff;stroke-width:0.0907088"
     d="m 15.92987,43.542737 c -0.518679,-0.184866 -1.034119,-0.731516 -1.19244,-1.26464 -0.114324,-0.384968 -0.133313,-2.146393 -0.133313,-12.365843 0,-8.82547 0.02764,-12.026708 0.106555,-12.340099 0.14222,-0.564808 0.777553,-1.209959 1.345091,-1.365878 0.316498,-0.08695 3.110878,-0.106239 12.472155,-0.08608 l 12.064271,0.02597 0.432897,0.254463 c 0.238095,0.139955 0.544237,0.422706 0.680316,0.628337 l 0.247419,0.373874 v 12.493948 12.493948 l -0.272688,0.393326 c -0.178609,0.257626 -0.442406,0.479388 -0.764613,0.642776 l -0.491926,0.249449 -12.070681,-0.004 C 18.308556,43.668993 16.223079,43.647242 15.92987,43.542737 Z M 22.949327,32.972649 V 26.713742 H 20.81767 18.686013 v 6.258907 6.258908 h 2.131657 2.131657 z m 6.440325,2.55631 c 0,-4.131747 0.02195,-4.317685 0.587805,-4.978758 0.436379,-0.50981 0.966374,-0.75236 1.643979,-0.75236 0.666921,0 1.260475,0.27386 1.555415,0.717654 0.450156,0.677342 0.476114,0.948212 0.476114,4.96811 v 3.747952 h 2.137921 2.13792 l -0.03466,-4.331346 c -0.02988,-3.733757 -0.05596,-4.406435 -0.189045,-4.875598 -0.255768,-0.901644 -0.761174,-1.830289 -1.274418,-2.341649 -0.880626,-0.877391 -1.857398,-1.241348 -3.331476,-1.241348 -1.462571,0 -2.449114,0.415537 -3.302423,1.390997 l -0.407135,0.465417 v -0.792144 -0.792144 l -2.10898,9.1e-5 -2.10898,9e-5 -3.62e-4,6.258795 -3.63e-4,6.258794 h 2.109378 2.109378 V 35.528915 Z M 21.685617,24.934858 c 1.266121,-0.375517 1.885313,-1.775481 1.32114,-2.987035 -0.396397,-0.851258 -1.078769,-1.248747 -2.143733,-1.248747 -1.439269,0 -2.352864,0.837574 -2.35555,2.159542 -0.0033,1.632351 1.457374,2.586602 3.178143,2.07624 z"
     id="path2921" /></svg>
